<svg width="270" height="89" viewBox="0 0 270 89" fill="none" xmlns="http://www.w3.org/2000/svg">
<path d="M165.95 10.0803C165.267 10.0803 164.656 9.96104 164.108 9.7226C163.56 9.4867 163.096 9.14681 162.713 8.70798C162.33 8.26916 162.038 7.73902 161.835 7.11756C161.632 6.49611 161.533 5.80363 161.533 5.03759C161.533 4.02551 161.708 3.14025 162.061 2.3869C162.413 1.631 162.918 1.04506 163.578 0.629065C164.237 0.21307 165.026 0.0050731 165.95 0.0050731C166.979 0.0050731 167.819 0.246046 168.466 0.72799C169.113 1.20994 169.564 1.85676 169.82 2.66845L168.826 2.90943C168.616 2.31841 168.271 1.84661 167.789 1.49149C167.307 1.13638 166.708 0.961353 165.99 0.961353C165.234 0.95628 164.603 1.12623 164.103 1.46866C163.601 1.8111 163.223 2.29051 162.969 2.90689C162.715 3.52327 162.586 4.23351 162.583 5.04013C162.578 5.84675 162.703 6.55445 162.956 7.16576C163.21 7.77707 163.588 8.25648 164.095 8.60398C164.603 8.95149 165.234 9.12651 165.99 9.13159C166.685 9.13159 167.258 8.99715 167.71 8.72828C168.161 8.4594 168.506 8.07384 168.742 7.57161C168.978 7.06937 169.11 6.47582 169.143 5.79095H166.913V4.94374H170.181C170.193 5.0452 170.201 5.15427 170.203 5.26842C170.203 5.38256 170.206 5.46373 170.206 5.51446C170.206 6.38704 170.049 7.1683 169.737 7.8557C169.422 8.54311 168.95 9.08593 168.321 9.48163C167.692 9.87733 166.901 10.0777 165.952 10.0777L165.95 10.0803Z" fill="#1D1D1B"/>
<path d="M172.758 9.87987V0.200388H176.494C176.588 0.200388 176.695 0.202924 176.814 0.210534C176.933 0.218143 177.052 0.230826 177.174 0.253655C177.679 0.329752 178.11 0.504774 178.46 0.781258C178.813 1.05774 179.079 1.40271 179.259 1.81871C179.442 2.2347 179.531 2.69635 179.531 3.20367C179.531 3.93419 179.338 4.56833 178.952 5.10608C178.567 5.64383 178.016 5.98119 177.298 6.1207L176.956 6.20187H173.742V9.87733H172.755L172.758 9.87987ZM173.745 5.26335H176.466C176.548 5.26335 176.641 5.25827 176.748 5.24813C176.855 5.24052 176.961 5.22276 177.063 5.20247C177.395 5.13144 177.666 4.99447 177.879 4.79155C178.092 4.59116 178.252 4.35019 178.356 4.0737C178.46 3.79722 178.514 3.50805 178.514 3.2062C178.514 2.90435 178.46 2.61519 178.356 2.33616C178.252 2.05714 178.092 1.81617 177.879 1.61325C177.666 1.41032 177.395 1.27589 177.063 1.20233C176.959 1.1795 176.855 1.16681 176.748 1.1592C176.641 1.15159 176.548 1.14906 176.466 1.14906H173.745V5.26335ZM178.618 9.87987L176.71 5.9406L177.659 5.57788L179.756 9.87987H178.618Z" fill="#1D1D1B"/>
<path d="M181.771 9.87987L185.104 0.202924H186.415L189.748 9.87987H188.721L185.555 0.753356H185.946L182.8 9.87987H181.771ZM183.255 7.53356V6.60518H188.254V7.53356H183.255Z" fill="#1D1D1B"/>
<path d="M192.166 9.87987V0.200388H193.16L198.49 8.12965V0.200388H199.484V9.87733H198.49L193.16 1.94046V9.87733H192.166V9.87987Z" fill="#1D1D1B"/>
<path d="M202.576 9.87987V0.200388H205.514C205.618 0.200388 205.793 0.200388 206.041 0.207997C206.29 0.21307 206.528 0.230826 206.756 0.261265C207.492 0.365263 208.106 0.636675 208.598 1.08057C209.09 1.52447 209.461 2.08758 209.707 2.77499C209.953 3.45986 210.077 4.21575 210.077 5.04013C210.077 5.86451 209.955 6.61786 209.707 7.30527C209.461 7.99014 209.09 8.55579 208.598 8.99969C208.106 9.44358 207.492 9.71753 206.756 9.81899C206.533 9.84436 206.292 9.86211 206.039 9.86972C205.785 9.87733 205.607 9.87987 205.514 9.87987H202.576ZM203.598 8.9312H205.514C205.696 8.9312 205.897 8.92613 206.11 8.91344C206.323 8.9033 206.505 8.88047 206.658 8.85003C207.223 8.7511 207.677 8.52281 208.025 8.16516C208.372 7.80751 208.626 7.35854 208.788 6.81825C208.951 6.27797 209.029 5.68695 209.029 5.04013C209.029 4.39331 208.948 3.79468 208.788 3.25186C208.626 2.70904 208.372 2.2626 208.022 1.90749C207.672 1.55491 207.218 1.32662 206.658 1.22769C206.505 1.19725 206.32 1.17442 206.102 1.16428C205.884 1.15413 205.689 1.14652 205.514 1.14652H203.598V8.9312Z" fill="#1D1D1B"/>
<path d="M212.811 9.87987V0.200388H218.861V1.14652H213.801V4.49477H218.055V5.4409H213.801V8.92866H218.861V9.87733H212.811V9.87987Z" fill="#1D1D1B"/>
<path d="M225.581 9.87987V0.200388H231.631V1.14652H226.57V4.49477H230.824V5.4409H226.57V8.92866H231.631V9.87733H225.581V9.87987Z" fill="#1D1D1B"/>
<path d="M238.036 10.0803C237.072 10.0803 236.26 9.86465 235.596 9.43851C234.931 9.00983 234.431 8.41882 234.089 7.66039C233.749 6.90449 233.579 6.02938 233.579 5.04013C233.579 4.05087 233.749 3.17576 234.089 2.41987C234.429 1.66398 234.931 1.07042 235.596 0.641748C236.258 0.21307 237.072 0 238.036 0C239.16 0 240.078 0.28663 240.791 0.862428C241.503 1.43823 241.993 2.21187 242.257 3.1783L241.25 3.43956C241.044 2.67353 240.674 2.06729 240.141 1.61832C239.608 1.16935 238.906 0.946134 238.038 0.946134C237.282 0.946134 236.651 1.11862 236.151 1.46359C235.649 1.80856 235.271 2.28797 235.017 2.90435C234.764 3.52073 234.634 4.23097 234.624 5.03759C234.619 5.84422 234.743 6.55445 234.997 7.1683C235.251 7.78214 235.631 8.26155 236.138 8.60906C236.646 8.95656 237.28 9.12905 238.036 9.12905C238.906 9.12905 239.606 8.9033 240.139 8.45433C240.671 8.00282 241.042 7.39912 241.247 6.63562L242.254 6.89688C241.99 7.86585 241.501 8.63696 240.788 9.21276C240.075 9.78855 239.157 10.0777 238.033 10.0777L238.036 10.0803Z" fill="#1D1D1B"/>
<path d="M248.862 10.0803C247.898 10.0803 247.087 9.86465 246.422 9.43851C245.757 9.00983 245.258 8.41882 244.915 7.66039C244.575 6.90449 244.405 6.02938 244.405 5.04013C244.405 4.05087 244.575 3.17576 244.915 2.41987C245.255 1.66398 245.757 1.07042 246.422 0.641748C247.084 0.21307 247.898 0 248.862 0C249.826 0 250.645 0.21307 251.305 0.641748C251.964 1.07042 252.467 1.66144 252.809 2.41987C253.152 3.17576 253.324 4.05087 253.324 5.04013C253.324 6.02938 253.152 6.90449 252.809 7.66039C252.467 8.41628 251.964 9.00983 251.305 9.43851C250.643 9.86719 249.829 10.0803 248.862 10.0803ZM248.862 9.13412C249.618 9.13412 250.25 8.96164 250.757 8.61667C251.264 8.2717 251.642 7.79229 251.896 7.17591C252.15 6.55952 252.276 5.84929 252.276 5.04267C252.276 4.23604 252.15 3.52581 251.896 2.91196C251.642 2.29812 251.264 1.81871 250.757 1.47374C250.25 1.12877 249.618 0.953744 248.862 0.94867C248.106 0.94867 247.475 1.12116 246.975 1.46613C246.473 1.8111 246.095 2.29051 245.841 2.90689C245.587 3.52327 245.458 4.23351 245.455 5.04013C245.45 5.84675 245.575 6.55445 245.828 7.16576C246.082 7.77707 246.46 8.25648 246.967 8.60398C247.475 8.95149 248.106 9.12651 248.862 9.13159V9.13412Z" fill="#1D1D1B"/>
<path d="M256.013 9.87987V0.200388H257.002V8.9312H261.599V9.87987H256.013Z" fill="#1D1D1B"/>
<path d="M263.95 9.87987V0.200388H270V1.14652H264.939V4.49477H269.193V5.4409H264.939V8.92866H270V9.87733H263.95V9.87987Z" fill="#1D1D1B"/>
<path d="M140.477 65.925H140.482V65.9072L140.477 65.925Z" fill="#1D1D1B"/>
<path d="M178.204 49.7266L185.946 73.5575H185.951L178.204 49.7266Z" fill="#1D1D1B"/>
<path d="M178.204 49.7266L185.946 73.5575H185.951L178.204 49.7266ZM140.477 65.925H140.482V65.9072L140.477 65.925Z" fill="#1D1D1B"/>
<path d="M140.482 65.9047V65.925H140.477L140.482 65.9047Z" fill="#F6E81D"/>
<path d="M185.951 73.5575H185.946L178.204 49.7266L185.951 73.5575Z" fill="#F6E81D"/>
<path d="M138.006 73.5194L137.993 73.5575H132.76V65.925H132.803V73.5194H138.006Z" fill="#1D1D1B"/>
<path d="M33.3822 65.925V73.5575H0V17.7356H8.10457V65.925H33.3822Z" fill="black"/>
<path d="M52.3004 17.7356H40.6319L26.2136 62.1049H34.615L37.3114 53.8003H55.5499L62.0335 73.56H70.4476L52.303 17.7381L52.3004 17.7356ZM39.772 46.1957L46.3749 25.8399L53.0538 46.1957H39.772Z" fill="black"/>
<path d="M233.716 17.7356V25.3757H221.677V73.5575H213.458L185.976 32.0417V61.2932L177.76 36.0064V17.7356H185.976L213.458 59.2158V17.7356H232.843V17.7406L233.716 17.7356Z" fill="black"/>
<path d="M261.781 17.7356V52.5853C261.781 54.9417 261.386 57.0217 260.599 58.8302C259.813 60.6388 258.745 62.1481 257.4 63.3605C256.056 64.5806 254.554 65.5039 252.883 66.1381C251.219 66.7722 249.501 67.0867 247.749 67.0867C245.996 67.0867 244.319 66.7722 242.647 66.1558C240.983 65.5344 239.474 64.6161 238.137 63.4037C236.793 62.1836 235.717 60.6769 234.913 58.8683C234.114 57.0597 233.713 54.9671 233.713 52.5853V29.1932H225.495V53.0114C225.495 57.4022 226.438 61.2222 228.323 64.4639C230.215 67.7132 232.828 70.232 236.176 72.0279C239.525 73.8187 243.383 74.7167 247.749 74.7167C252.114 74.7167 255.972 73.8187 259.316 72.0279C262.664 70.232 265.284 67.7057 267.169 64.4436C269.054 61.1892 269.997 57.3743 269.997 53.0089V17.7356H261.779H261.781Z" fill="#1D1D1B"/>
<path d="M178.204 49.7266L177.758 48.3644V48.3518L167.806 17.7356H156.138L144.302 54.1503V62.1049H150.121L152.817 53.8003H171.056L177.539 73.56H185.946L178.204 49.7291V49.7266ZM155.278 46.1957L161.881 25.8399L168.56 46.1957H155.278Z" fill="black"/>
<path d="M150.121 65.925V73.5575H137.993L138.006 73.5194H132.803V35.3392L114.778 73.5575H111.097L93.0313 35.3392V73.5575H85.3935V17.7356H92.7193L112.957 59.7231L133.075 17.7356H140.482V65.9047L140.477 65.925H150.121Z" fill="#1C4E6D"/>
<path d="M93.044 81.2128H85.3884V88.8681H93.044V81.2128Z" fill="#1C4E6D"/>
<path d="M186.019 81.2128H178.364V88.8681H186.019V81.2128Z" fill="black"/>
<path d="M197.68 88.7286V81.1265H198.462L202.65 87.3563V81.1265H203.431V88.7286H202.65L198.462 82.4937V88.7286H197.68Z" fill="#1D1D1B"/>
<path d="M207.713 88.8402C207.307 88.8402 206.947 88.7565 206.635 88.5891C206.323 88.4217 206.079 88.1858 205.902 87.8788C205.724 87.5745 205.635 87.2168 205.635 86.8084V83.412H206.183V86.7374C206.183 87.0139 206.231 87.2523 206.323 87.4527C206.414 87.6531 206.538 87.818 206.691 87.9473C206.843 88.0767 207.008 88.1731 207.188 88.234C207.368 88.2948 207.543 88.3278 207.713 88.3278C207.883 88.3278 208.06 88.2974 208.24 88.234C208.421 88.1731 208.585 88.0767 208.735 87.9473C208.885 87.818 209.006 87.6531 209.1 87.4527C209.194 87.2523 209.24 87.0139 209.24 86.7374V83.4069H209.788V86.8059C209.788 87.2143 209.699 87.5719 209.521 87.8763C209.344 88.1807 209.1 88.4166 208.788 88.5865C208.476 88.7565 208.119 88.8402 207.71 88.8402H207.713Z" fill="#1D1D1B"/>
<path d="M211.49 88.7286V83.4069H211.99L214.082 87.8814L216.162 83.4069H216.67V88.7261H216.152V84.6194L214.255 88.7286H213.905L212.012 84.6194V88.7286H211.49Z" fill="#1D1D1B"/>
<path d="M218.369 88.7286V83.4069H221.695V83.9269H218.912V85.7659H221.251V86.2859H218.912V88.2035H221.695V88.7235H218.369V88.7286ZM220.353 82.7804H219.886L220.325 81.6339H220.792L220.353 82.7804Z" fill="#1D1D1B"/>
<path d="M223.247 88.7286V83.4069H225.302C225.353 83.4069 225.413 83.4069 225.477 83.412C225.54 83.417 225.609 83.4247 225.675 83.4373C225.954 83.4805 226.19 83.5768 226.382 83.7265C226.575 83.8762 226.722 84.0689 226.821 84.2972C226.92 84.5255 226.971 84.7792 226.971 85.0582C226.971 85.459 226.864 85.809 226.654 86.1033C226.443 86.3975 226.139 86.5852 225.746 86.6613L225.558 86.707H223.793V88.7286H223.247ZM223.79 86.192H225.287C225.332 86.192 225.383 86.1895 225.441 86.1844C225.5 86.1794 225.558 86.1717 225.614 86.1591C225.796 86.1185 225.946 86.0449 226.063 85.9333C226.18 85.8217 226.268 85.6898 226.324 85.5376C226.382 85.3854 226.41 85.2256 226.41 85.0607C226.41 84.8959 226.382 84.7361 226.324 84.5813C226.266 84.4266 226.18 84.2947 226.063 84.1831C225.946 84.0715 225.796 83.9979 225.614 83.9573C225.558 83.9446 225.5 83.937 225.441 83.932C225.383 83.9269 225.33 83.9269 225.287 83.9269H223.79V86.192ZM226.471 88.7286L225.421 86.5624L225.941 86.362L227.093 88.7261H226.469L226.471 88.7286Z" fill="#1D1D1B"/>
<path d="M228.648 88.7286V83.4069H229.191V88.7286H228.648Z" fill="#1D1D1B"/>
<path d="M233.12 88.8402C232.59 88.8402 232.143 88.7235 231.778 88.4876C231.413 88.2517 231.136 87.927 230.951 87.511C230.763 87.095 230.669 86.6156 230.669 86.0703C230.669 85.5249 230.763 85.0455 230.951 84.6295C231.139 84.2135 231.415 83.8863 231.778 83.6529C232.143 83.417 232.59 83.3004 233.12 83.3004C233.65 83.3004 234.099 83.417 234.464 83.6529C234.827 83.8888 235.103 84.2135 235.291 84.6295C235.479 85.0455 235.573 85.5249 235.573 86.0703C235.573 86.6156 235.479 87.095 235.291 87.511C235.103 87.927 234.827 88.2543 234.464 88.4876C234.101 88.7235 233.652 88.8402 233.12 88.8402ZM233.12 88.3202C233.536 88.3202 233.883 88.2263 234.162 88.0361C234.441 87.8459 234.649 87.5821 234.789 87.2422C234.928 86.9023 234.997 86.5116 234.997 86.0677C234.997 85.6238 234.926 85.2332 234.789 84.8959C234.649 84.5585 234.441 84.2947 234.162 84.1045C233.883 83.9142 233.536 83.8178 233.12 83.8153C232.704 83.8153 232.356 83.9091 232.082 84.0994C231.808 84.2896 231.598 84.5534 231.458 84.8933C231.319 85.2332 231.248 85.6238 231.245 86.0652C231.243 86.5091 231.311 86.8997 231.451 87.2346C231.59 87.5719 231.798 87.8332 232.077 88.026C232.356 88.2162 232.704 88.3126 233.12 88.3151V88.3202ZM235.144 88.8377L233.726 87.4248L234.096 87.0545L235.509 88.4673L235.147 88.8377H235.144Z" fill="#1D1D1B"/>
<path d="M239.055 88.8402C238.65 88.8402 238.289 88.7565 237.977 88.5891C237.665 88.4217 237.422 88.1858 237.244 87.8788C237.067 87.5745 236.978 87.2168 236.978 86.8084V83.412H237.526V86.7374C237.526 87.0139 237.574 87.2523 237.665 87.4527C237.759 87.6531 237.881 87.818 238.033 87.9473C238.185 88.0767 238.35 88.1731 238.53 88.234C238.711 88.2948 238.886 88.3278 239.055 88.3278C239.225 88.3278 239.403 88.2974 239.583 88.234C239.763 88.1731 239.928 88.0767 240.078 87.9473C240.227 87.818 240.349 87.6531 240.443 87.4527C240.537 87.2523 240.583 87.0139 240.583 86.7374V83.4069H241.13V86.8059C241.13 87.2143 241.042 87.5719 240.864 87.8763C240.687 88.1807 240.443 88.4166 240.131 88.5865C239.819 88.7565 239.461 88.8402 239.053 88.8402H239.055Z" fill="#1D1D1B"/>
<path d="M242.833 88.7286V83.4069H246.158V83.9269H243.375V85.7659H245.714V86.2859H243.375V88.2035H246.158V88.7235H242.833V88.7286Z" fill="#1D1D1B"/>
<path d="M35.2035 88.9924C34.4603 88.9924 33.8337 88.8275 33.3213 88.4978C32.8089 88.168 32.4233 87.7114 32.1595 87.1255C31.8957 86.5421 31.7663 85.8674 31.7663 85.1039C31.7663 84.3404 31.8982 83.6656 32.1595 83.0822C32.4233 82.4988 32.8089 82.0397 33.3213 81.7099C33.8337 81.3802 34.4603 81.2153 35.2035 81.2153C36.071 81.2153 36.7787 81.4385 37.3292 81.8824C37.8796 82.3263 38.2551 82.9224 38.4605 83.6682L37.6818 83.8711C37.522 83.2801 37.2379 82.8108 36.8269 82.4658C36.416 82.1209 35.8732 81.9484 35.2035 81.9484C34.6201 81.9484 34.133 82.0803 33.7475 82.3492C33.3594 82.6155 33.0676 82.9858 32.8723 83.4627C32.677 83.9396 32.5755 84.4875 32.5679 85.1089C32.5654 85.7304 32.6618 86.2783 32.8571 86.7526C33.0524 87.227 33.3467 87.5973 33.7398 87.8662C34.133 88.135 34.6201 88.2695 35.206 88.2695C35.8757 88.2695 36.4185 88.0945 36.8295 87.7469C37.2404 87.3994 37.5271 86.9327 37.6843 86.3442L38.4631 86.5472C38.2601 87.2929 37.8822 87.889 37.3317 88.3329C36.7813 88.7768 36.0736 89 35.206 89L35.2035 88.9924Z" fill="#1D1D1B"/>
<path d="M40.3174 88.8377V83.6098H42.3365C42.3873 83.6098 42.4456 83.6098 42.509 83.6149C42.5724 83.62 42.6384 83.6276 42.7043 83.6377C42.9783 83.6783 43.2091 83.7747 43.3994 83.9218C43.5896 84.0715 43.7342 84.2566 43.8306 84.4824C43.9295 84.7082 43.9777 84.9567 43.9777 85.2307C43.9777 85.6264 43.8737 85.9663 43.6657 86.258C43.4577 86.5472 43.1609 86.7323 42.7728 86.8059L42.5877 86.849H40.8526V88.8351H40.3199L40.3174 88.8377ZM40.8501 86.3442H42.3188C42.3619 86.3442 42.4126 86.3442 42.471 86.3366C42.5293 86.3315 42.5851 86.3239 42.6409 86.3112C42.821 86.2732 42.9681 86.1996 43.0823 86.0906C43.1964 85.9815 43.2827 85.8521 43.341 85.7025C43.3968 85.5528 43.4273 85.3956 43.4273 85.2332C43.4273 85.0709 43.3994 84.9136 43.341 84.764C43.2852 84.6118 43.199 84.4824 43.0823 84.3733C42.9681 84.2643 42.821 84.1907 42.6409 84.1526C42.5851 84.14 42.5293 84.1324 42.471 84.1298C42.4126 84.1273 42.3619 84.1247 42.3188 84.1247H40.8501V86.3468V86.3442ZM43.4831 88.8377L42.4532 86.7095L42.9656 86.5142L44.097 88.8377H43.4831Z" fill="#1D1D1B"/>
<path d="M45.5479 83.6098H48.8151V84.1222H46.0831V85.9308H48.3813V86.4432H46.0831V88.3278H48.8151V88.8402H45.5479V83.6098ZM47.4961 82.9934H47.0395L47.4707 81.8672H47.9273L47.4961 82.9934Z" fill="#1D1D1B"/>
<path d="M49.9769 88.8377L51.7779 83.6098H52.4856L54.2866 88.8377H53.7311L52.0214 83.9091H52.232L50.5324 88.8377H49.9769ZM50.7785 87.5694V87.0697H53.48V87.5694H50.7785Z" fill="#1D1D1B"/>
<path d="M56.5468 88.8377V84.1222H54.7204V83.6098H58.9059V84.1222H57.0795V88.8377H56.5468Z" fill="#1D1D1B"/>
<path d="M60.2148 88.8377V83.6098H60.7475V88.8377H60.2148Z" fill="#1D1D1B"/>
<path d="M64.6057 88.9467C64.0857 88.9467 63.6468 88.8301 63.2892 88.5992C62.9315 88.3684 62.6601 88.0488 62.4749 87.6379C62.2923 87.2295 62.1984 86.7577 62.1984 86.2225C62.1984 85.6873 62.2897 85.2155 62.4749 84.8071C62.6601 84.3987 62.929 84.0765 63.2892 83.8457C63.6468 83.6149 64.0857 83.4982 64.6057 83.4982C65.1257 83.4982 65.5671 83.6149 65.9247 83.8457C66.2824 84.0765 66.5538 84.3962 66.739 84.8071C66.9242 85.2155 67.018 85.6873 67.018 86.2225C67.018 86.7577 66.9242 87.2295 66.739 87.6379C66.5538 88.0463 66.2824 88.3684 65.9247 88.5992C65.5671 88.8301 65.1282 88.9467 64.6057 88.9467ZM64.6057 88.4343C65.0141 88.4343 65.3565 88.3405 65.6305 88.1553C65.9044 87.9702 66.1099 87.7089 66.2469 87.3766C66.3839 87.0443 66.4524 86.6588 66.4524 86.225C66.4524 85.7913 66.3839 85.4057 66.2469 85.0734C66.1099 84.7411 65.9044 84.4824 65.6305 84.2972C65.3565 84.1121 65.0166 84.0157 64.6057 84.0131C64.1973 84.0131 63.8574 84.107 63.586 84.2922C63.3145 84.4773 63.1116 84.7386 62.9746 85.0709C62.8377 85.4032 62.7692 85.7887 62.7666 86.2225C62.7666 86.6588 62.83 87.0418 62.967 87.3715C63.104 87.7013 63.3095 87.96 63.5834 88.1477C63.8574 88.3354 64.1973 88.4293 64.6082 88.4318L64.6057 88.4343Z" fill="#1D1D1B"/>
<path d="M68.3954 88.8377V83.6098H68.9332L71.8123 87.8941V83.6098H72.3501V88.8377H71.8123L68.9332 84.5509V88.8377H68.3954Z" fill="#1D1D1B"/>
<path d="M106.767 88.7565V81.1621H107.48L110.466 87.5491L113.436 81.1621H114.159V88.7514H113.421V82.892L110.714 88.7565H110.212L107.51 82.892V88.7565H106.767Z" fill="#1D1D1B"/>
<path d="M115.993 88.7565L117.824 83.4399H118.545L120.376 88.7565H119.811L118.07 83.7417H118.286L116.559 88.7565H115.993ZM116.81 87.4679V86.9581H119.557V87.4679H116.81Z" fill="#1D1D1B"/>
<path d="M121.705 88.7565V83.4399H122.251L125.178 87.7977V83.4399H125.723V88.7565H125.178L122.251 84.3962V88.7565H121.705Z" fill="#1D1D1B"/>
<path d="M127.055 88.7565L128.887 83.4399H129.607L131.439 88.7565H130.873L129.133 83.7417H129.348L127.621 88.7565H127.055ZM127.869 87.4679V86.9581H130.617V87.4679H127.869Z" fill="#1D1D1B"/>
<path d="M134.749 88.8681C134.373 88.8681 134.036 88.8021 133.737 88.6728C133.437 88.5434 133.181 88.3557 132.971 88.1147C132.76 87.8738 132.6 87.5821 132.489 87.2422C132.377 86.9023 132.321 86.5193 132.321 86.1007C132.321 85.5452 132.418 85.0582 132.61 84.6447C132.803 84.2288 133.082 83.9091 133.442 83.6783C133.805 83.45 134.239 83.3359 134.746 83.3359C135.312 83.3359 135.774 83.4678 136.129 83.7341C136.484 83.9979 136.733 84.353 136.872 84.7995L136.327 84.9339C136.21 84.6092 136.02 84.348 135.756 84.1552C135.492 83.9599 135.162 83.8635 134.769 83.8635C134.353 83.8609 134.008 83.9548 133.732 84.1425C133.455 84.3302 133.247 84.594 133.11 84.9314C132.971 85.2687 132.9 85.6594 132.897 86.1033C132.895 86.5471 132.963 86.9352 133.103 87.2726C133.242 87.61 133.45 87.8712 133.729 88.0615C134.008 88.2517 134.353 88.3481 134.769 88.3506C135.15 88.3506 135.467 88.2771 135.715 88.13C135.964 87.9828 136.152 87.7698 136.281 87.4958C136.41 87.2193 136.484 86.8947 136.502 86.5167H135.276V86.0525H137.07C137.077 86.1083 137.083 86.1692 137.083 86.2326C137.083 86.296 137.083 86.3417 137.083 86.3671C137.083 86.8465 136.996 87.2751 136.824 87.6531C136.651 88.031 136.393 88.3278 136.048 88.546C135.703 88.7641 135.269 88.8732 134.746 88.8732L134.749 88.8681Z" fill="#1D1D1B"/>
<path d="M138.488 88.7565V83.4399H141.811V83.9599H139.031V85.7989H141.367V86.3189H139.031V88.234H141.811V88.754H138.488V88.7565Z" fill="#1D1D1B"/>
<path d="M143.363 88.7565V83.4399H143.863L145.953 87.9118L148.031 83.4399H148.536V88.7514H148.018V84.6498L146.123 88.7565H145.773L143.883 84.6498V88.7565H143.363Z" fill="#1D1D1B"/>
<path d="M150.233 88.7565V83.4399H153.556V83.9599H150.775V85.7989H153.112V86.3189H150.775V88.234H153.556V88.754H150.233V88.7565Z" fill="#1D1D1B"/>
<path d="M155.105 88.7565V83.4399H155.651L158.578 87.7977V83.4399H159.123V88.7565H158.578L155.651 84.3962V88.7565H155.105Z" fill="#1D1D1B"/>
<path d="M162.241 88.7565V83.9599H160.384V83.4399H164.641V83.9599H162.784V88.7565H162.241Z" fill="#1D1D1B"/>
</svg>
